<svg id="visual" viewBox="0 0 1280 540" width="1280" height="540" xmlns="http://www.w3.org/2000/svg" xmlns:xlink="http://www.w3.org/1999/xlink" version="1.1"><g><g transform="translate(503 206)"><path d="M56.6 -37C66.4 -15.6 62.8 9.3 51.2 28.1C39.5 46.9 19.7 59.6 0.9 59.1C-17.9 58.6 -35.8 44.8 -49.3 24.9C-62.9 5 -72.1 -21 -63.2 -41.9C-54.2 -62.8 -27.1 -78.6 -1.9 -77.5C23.4 -76.4 46.7 -58.4 56.6 -37Z" fill="hsl(214, 70%, 11%)"></path></g><g transform="translate(187 303)"><path d="M43.5 -27.6C51.1 -11.9 48.4 7.3 39.5 22.5C30.5 37.7 15.3 49 -1.6 49.9C-18.5 50.9 -37 41.5 -46.3 26C-55.6 10.6 -55.6 -10.8 -46.4 -27.4C-37.1 -44 -18.6 -55.8 -0.3 -55.7C17.9 -55.5 35.8 -43.3 43.5 -27.6Z" fill="hsl(214, 70%, 12%)"></path></g><g transform="translate(1145 240)"><path d="M30.3 -16.7C37.7 -4.8 41 10.4 35.2 20.6C29.5 30.7 14.7 35.9 0.9 35.4C-13 34.9 -26 28.7 -33.1 17.7C-40.2 6.7 -41.5 -9 -35 -20.4C-28.5 -31.8 -14.3 -38.9 -1.4 -38.1C11.5 -37.3 23 -28.6 30.3 -16.7Z" fill="hsl(214, 70%, 11%)"></path></g><g transform="translate(748 313)"><path d="M25.9 -14.9C31.1 -6 31.1 6 25.9 15.7C20.8 25.5 10.4 33 -0.4 33.2C-11.1 33.4 -22.2 26.3 -27 16.8C-31.8 7.2 -30.3 -4.7 -24.8 -13.8C-19.2 -22.9 -9.6 -29.2 0.4 -29.4C10.4 -29.6 20.7 -23.8 25.9 -14.9Z" fill="hsl(214, 70%, 12%)"></path></g><g transform="translate(723 100)"><path d="M36.5 -21.3C42.7 -10.5 39.8 5.4 32.2 18.6C24.6 31.9 12.3 42.4 -1.6 43.4C-15.6 44.3 -31.1 35.6 -37.9 22.9C-44.7 10.1 -42.8 -6.7 -35 -18.5C-27.2 -30.3 -13.6 -37 0.8 -37.5C15.2 -38 30.4 -32.1 36.5 -21.3Z" fill="hsl(214, 70%, 12%)"></path></g><g transform="translate(196 97)"><path d="M52.5 -31.5C61.8 -14.1 59 9.1 48.2 23.3C37.4 37.4 18.7 42.5 1.2 41.8C-16.2 41 -32.4 34.6 -41 21.7C-49.5 8.8 -50.4 -10.4 -42.3 -27C-34.2 -43.7 -17.1 -57.8 2.2 -59C21.6 -60.3 43.1 -48.8 52.5 -31.5Z" fill="hsl(214, 70%, 12%)"></path></g><g transform="translate(1109 432)"><path d="M43.9 -21.8C53.4 -8.9 55.2 12 46.6 24.9C38 37.8 19 42.7 -0.1 42.8C-19.3 42.9 -38.6 38.2 -45.9 25.9C-53.3 13.7 -48.9 -5.9 -39.2 -18.9C-29.6 -31.9 -14.8 -38.3 1.2 -38.9C17.2 -39.6 34.4 -34.7 43.9 -21.8Z" fill="hsl(214, 70%, 12%)"></path></g><g transform="translate(398 392)"><path d="M44.1 -25.3C53.5 -9.2 54.9 11.7 46.2 28.8C37.6 45.9 18.8 59.3 -2.3 60.6C-23.4 62 -46.9 51.3 -55.9 34C-65 16.6 -59.6 -7.3 -47.9 -24.8C-36.2 -42.3 -18.1 -53.3 -0.4 -53.1C17.4 -52.9 34.7 -41.5 44.1 -25.3Z" fill="hsl(214, 70%, 11%)"></path></g><g transform="translate(993 109)"><path d="M18.4 -11.5C22.1 -4.2 22.2 4.3 18.5 12C14.9 19.7 7.4 26.5 0.3 26.4C-6.9 26.2 -13.7 19 -18.8 10.6C-23.8 2.1 -27.1 -7.7 -23.7 -14.9C-20.2 -22.1 -10.1 -26.6 -1.4 -25.8C7.4 -25 14.7 -18.9 18.4 -11.5Z" fill="hsl(214, 70%, 12%)"></path></g><g transform="translate(950 313)"><path d="M41.8 -23.6C50.1 -9.6 50.2 9.7 41.8 24C33.5 38.2 16.7 47.5 -1.1 48.1C-18.8 48.7 -37.7 40.7 -45.6 26.6C-53.5 12.6 -50.4 -7.4 -41 -22C-31.6 -36.6 -15.8 -45.8 0.5 -46.1C16.7 -46.3 33.4 -37.6 41.8 -23.6Z" fill="hsl(214, 70%, 12%)"></path></g></g></svg>