<svg id="visual" viewBox="0 0 960 140" width="960" height="140" xmlns="http://www.w3.org/2000/svg" xmlns:xlink="http://www.w3.org/1999/xlink" version="1.1"><path d="M0 44L7 45.7C14 47.3 28 50.7 41.8 48.7C55.7 46.7 69.3 39.3 83.2 43.2C97 47 111 62 125 67.2C139 72.3 153 67.7 167 64.5C181 61.3 195 59.7 208.8 58C222.7 56.3 236.3 54.7 250.2 49.7C264 44.7 278 36.3 292 36.5C306 36.7 320 45.3 334 47.2C348 49 362 44 375.8 41.2C389.7 38.3 403.3 37.7 417.2 41.7C431 45.7 445 54.3 459 54.7C473 55 487 47 501 42.7C515 38.3 529 37.7 542.8 39.5C556.7 41.3 570.3 45.7 584.2 46C598 46.3 612 42.7 626 42C640 41.3 654 43.7 668 46.8C682 50 696 54 709.8 55.8C723.7 57.7 737.3 57.3 751.2 60.8C765 64.3 779 71.7 793 74.7C807 77.7 821 76.3 835 68.2C849 60 863 45 876.8 41.5C890.7 38 904.3 46 918.2 48.8C932 51.7 946 49.3 953 48.2L960 47L960 0L953 0C946 0 932 0 918.2 0C904.3 0 890.7 0 876.8 0C863 0 849 0 835 0C821 0 807 0 793 0C779 0 765 0 751.2 0C737.3 0 723.7 0 709.8 0C696 0 682 0 668 0C654 0 640 0 626 0C612 0 598 0 584.2 0C570.3 0 556.7 0 542.8 0C529 0 515 0 501 0C487 0 473 0 459 0C445 0 431 0 417.2 0C403.3 0 389.7 0 375.8 0C362 0 348 0 334 0C320 0 306 0 292 0C278 0 264 0 250.2 0C236.3 0 222.7 0 208.8 0C195 0 181 0 167 0C153 0 139 0 125 0C111 0 97 0 83.2 0C69.3 0 55.7 0 41.8 0C28 0 14 0 7 0L0 0Z" fill="#6f5e53"></path><path d="M0 93L7 93.8C14 94.7 28 96.3 41.8 95C55.7 93.7 69.3 89.3 83.2 89.7C97 90 111 95 125 95.7C139 96.3 153 92.7 167 89.2C181 85.7 195 82.3 208.8 84.7C222.7 87 236.3 95 250.2 96.2C264 97.3 278 91.7 292 88.8C306 86 320 86 334 89.5C348 93 362 100 375.8 101.7C389.7 103.3 403.3 99.7 417.2 95.5C431 91.3 445 86.7 459 85.3C473 84 487 86 501 87.5C515 89 529 90 542.8 88.3C556.7 86.7 570.3 82.3 584.2 79.7C598 77 612 76 626 79C640 82 654 89 668 91.2C682 93.3 696 90.7 709.8 87.2C723.7 83.7 737.3 79.3 751.2 83.3C765 87.3 779 99.7 793 104.2C807 108.7 821 105.3 835 103C849 100.7 863 99.3 876.8 96.3C890.7 93.3 904.3 88.7 918.2 88.3C932 88 946 92 953 94L960 96L960 45L953 46.2C946 47.3 932 49.7 918.2 46.8C904.3 44 890.7 36 876.8 39.5C863 43 849 58 835 66.2C821 74.3 807 75.7 793 72.7C779 69.7 765 62.3 751.2 58.8C737.3 55.3 723.7 55.7 709.8 53.8C696 52 682 48 668 44.8C654 41.7 640 39.3 626 40C612 40.7 598 44.3 584.2 44C570.3 43.7 556.7 39.3 542.8 37.5C529 35.7 515 36.3 501 40.7C487 45 473 53 459 52.7C445 52.3 431 43.7 417.2 39.7C403.3 35.7 389.7 36.3 375.8 39.2C362 42 348 47 334 45.2C320 43.3 306 34.7 292 34.5C278 34.3 264 42.7 250.2 47.7C236.3 52.7 222.7 54.3 208.8 56C195 57.7 181 59.3 167 62.5C153 65.7 139 70.3 125 65.2C111 60 97 45 83.2 41.2C69.3 37.3 55.7 44.7 41.8 46.7C28 48.7 14 45.3 7 43.7L0 42Z" fill="#9d9089"></path><path d="M0 110L7 110.7C14 111.3 28 112.7 41.8 112C55.7 111.3 69.3 108.7 83.2 110.2C97 111.7 111 117.3 125 118.3C139 119.3 153 115.7 167 111.8C181 108 195 104 208.8 105.8C222.7 107.7 236.3 115.3 250.2 118C264 120.7 278 118.3 292 117.8C306 117.3 320 118.7 334 119.2C348 119.7 362 119.3 375.8 117.7C389.7 116 403.3 113 417.2 109.5C431 106 445 102 459 101.2C473 100.3 487 102.7 501 104.5C515 106.3 529 107.7 542.8 107.3C556.7 107 570.3 105 584.2 105C598 105 612 107 626 109.2C640 111.3 654 113.7 668 112.7C682 111.7 696 107.3 709.8 105C723.7 102.7 737.3 102.3 751.2 106.2C765 110 779 118 793 120.3C807 122.7 821 119.3 835 116.5C849 113.7 863 111.3 876.8 110.7C890.7 110 904.3 111 918.2 112.2C932 113.3 946 114.7 953 115.3L960 116L960 94L953 92C946 90 932 86 918.2 86.3C904.3 86.7 890.7 91.3 876.8 94.3C863 97.3 849 98.7 835 101C821 103.3 807 106.7 793 102.2C779 97.7 765 85.3 751.2 81.3C737.3 77.3 723.7 81.7 709.8 85.2C696 88.7 682 91.3 668 89.2C654 87 640 80 626 77C612 74 598 75 584.2 77.7C570.3 80.3 556.7 84.7 542.8 86.3C529 88 515 87 501 85.5C487 84 473 82 459 83.3C445 84.7 431 89.3 417.2 93.5C403.3 97.7 389.7 101.3 375.8 99.7C362 98 348 91 334 87.5C320 84 306 84 292 86.8C278 89.7 264 95.3 250.2 94.2C236.3 93 222.7 85 208.8 82.7C195 80.3 181 83.7 167 87.2C153 90.7 139 94.3 125 93.7C111 93 97 88 83.2 87.7C69.3 87.3 55.7 91.7 41.8 93C28 94.3 14 92.7 7 91.8L0 91Z" fill="#cdc6c2"></path><path d="M0 141L7 141C14 141 28 141 41.8 141C55.7 141 69.3 141 83.2 141C97 141 111 141 125 141C139 141 153 141 167 141C181 141 195 141 208.8 141C222.7 141 236.3 141 250.2 141C264 141 278 141 292 141C306 141 320 141 334 141C348 141 362 141 375.8 141C389.7 141 403.3 141 417.2 141C431 141 445 141 459 141C473 141 487 141 501 141C515 141 529 141 542.8 141C556.7 141 570.3 141 584.2 141C598 141 612 141 626 141C640 141 654 141 668 141C682 141 696 141 709.8 141C723.7 141 737.3 141 751.2 141C765 141 779 141 793 141C807 141 821 141 835 141C849 141 863 141 876.8 141C890.7 141 904.3 141 918.2 141C932 141 946 141 953 141L960 141L960 114L953 113.3C946 112.7 932 111.3 918.2 110.2C904.3 109 890.7 108 876.8 108.7C863 109.3 849 111.7 835 114.5C821 117.3 807 120.7 793 118.3C779 116 765 108 751.2 104.2C737.3 100.3 723.7 100.7 709.8 103C696 105.3 682 109.7 668 110.7C654 111.7 640 109.3 626 107.2C612 105 598 103 584.2 103C570.3 103 556.7 105 542.8 105.3C529 105.7 515 104.3 501 102.5C487 100.7 473 98.3 459 99.2C445 100 431 104 417.2 107.5C403.3 111 389.7 114 375.8 115.7C362 117.3 348 117.7 334 117.2C320 116.7 306 115.3 292 115.8C278 116.3 264 118.7 250.2 116C236.3 113.3 222.7 105.7 208.8 103.8C195 102 181 106 167 109.8C153 113.7 139 117.3 125 116.3C111 115.3 97 109.7 83.2 108.2C69.3 106.7 55.7 109.3 41.8 110C28 110.7 14 109.3 7 108.7L0 108Z" fill="#ffffff"></path></svg>