<svg id="visual" viewBox="0 0 900 70" width="900" height="70" xmlns="http://www.w3.org/2000/svg" xmlns:xlink="http://www.w3.org/1999/xlink" version="1.1"><rect x="0" y="0" width="900" height="70" fill="#d4dfed"></rect><path d="M0 31L37.5 32.3C75 33.7 150 36.3 225 37.2C300 38 375 37 450 35.5C525 34 600 32 675 32.5C750 33 825 36 862.5 37.5L900 39L900 71L862.5 71C825 71 750 71 675 71C600 71 525 71 450 71C375 71 300 71 225 71C150 71 75 71 37.5 71L0 71Z" fill="hsl(214, 70%, 85%)"></path><path d="M0 38L37.5 39.7C75 41.3 150 44.7 225 46.7C300 48.7 375 49.3 450 48.8C525 48.3 600 46.7 675 46.5C750 46.3 825 47.7 862.5 48.3L900 49L900 71L862.5 71C825 71 750 71 675 71C600 71 525 71 450 71C375 71 300 71 225 71C150 71 75 71 37.5 71L0 71Z" fill="hsl(214, 90%, 81%)"></path><path d="M0 55L37.5 55.7C75 56.3 150 57.7 225 59C300 60.3 375 61.7 450 62.2C525 62.7 600 62.3 675 62.2C750 62 825 62 862.5 62L900 62L900 71L862.5 71C825 71 750 71 675 71C600 71 525 71 450 71C375 71 300 71 225 71C150 71 75 71 37.5 71L0 71Z" fill="#5a95e2"></path></svg>