<svg id="visual" viewBox="0 0 900 450" width="900" height="450" xmlns="http://www.w3.org/2000/svg" xmlns:xlink="http://www.w3.org/1999/xlink" version="1.1"><path d="M0 346L18.8 342.3C37.7 338.7 75.3 331.3 112.8 338.3C150.3 345.3 187.7 366.7 225.2 369.5C262.7 372.3 300.3 356.7 337.8 347C375.3 337.3 412.7 333.7 450.2 342.5C487.7 351.3 525.3 372.7 562.8 375.5C600.3 378.3 637.7 362.7 675.2 352.8C712.7 343 750.3 339 787.8 335.3C825.3 331.7 862.7 328.3 881.3 326.7L900 325L900 451L881.3 451C862.7 451 825.3 451 787.8 451C750.3 451 712.7 451 675.2 451C637.7 451 600.3 451 562.8 451C525.3 451 487.7 451 450.2 451C412.7 451 375.3 451 337.8 451C300.3 451 262.7 451 225.2 451C187.7 451 150.3 451 112.8 451C75.3 451 37.7 451 18.8 451L0 451Z" fill="#0a1e38"></path><path d="M0 348L18.8 352C37.7 356 75.3 364 112.8 367.3C150.3 370.7 187.7 369.3 225.2 376.8C262.7 384.3 300.3 400.7 337.8 405.8C375.3 411 412.7 405 450.2 394C487.7 383 525.3 367 562.8 359.2C600.3 351.3 637.7 351.7 675.2 357.5C712.7 363.3 750.3 374.7 787.8 381.7C825.3 388.7 862.7 391.3 881.3 392.7L900 394L900 451L881.3 451C862.7 451 825.3 451 787.8 451C750.3 451 712.7 451 675.2 451C637.7 451 600.3 451 562.8 451C525.3 451 487.7 451 450.2 451C412.7 451 375.3 451 337.8 451C300.3 451 262.7 451 225.2 451C187.7 451 150.3 451 112.8 451C75.3 451 37.7 451 18.8 451L0 451Z" fill="#0b192d"></path><path d="M0 405L18.8 400.2C37.7 395.3 75.3 385.7 112.8 388.8C150.3 392 187.7 408 225.2 414.3C262.7 420.7 300.3 417.3 337.8 413.8C375.3 410.3 412.7 406.7 450.2 407.2C487.7 407.7 525.3 412.3 562.8 409C600.3 405.7 637.7 394.3 675.2 388.5C712.7 382.7 750.3 382.3 787.8 389C825.3 395.7 862.7 409.3 881.3 416.2L900 423L900 451L881.3 451C862.7 451 825.3 451 787.8 451C750.3 451 712.7 451 675.2 451C637.7 451 600.3 451 562.8 451C525.3 451 487.7 451 450.2 451C412.7 451 375.3 451 337.8 451C300.3 451 262.7 451 225.2 451C187.7 451 150.3 451 112.8 451C75.3 451 37.7 451 18.8 451L0 451Z" fill="#0c1627"></path><path d="M0 428L18.8 425.3C37.7 422.7 75.3 417.3 112.8 416.5C150.3 415.7 187.7 419.3 225.2 423.3C262.7 427.3 300.3 431.7 337.8 432C375.3 432.3 412.7 428.7 450.2 423.3C487.7 418 525.3 411 562.8 411.3C600.3 411.7 637.7 419.3 675.2 424.3C712.7 429.3 750.3 431.7 787.8 430.2C825.3 428.7 862.7 423.3 881.3 420.7L900 418L900 451L881.3 451C862.7 451 825.3 451 787.8 451C750.3 451 712.7 451 675.2 451C637.7 451 600.3 451 562.8 451C525.3 451 487.7 451 450.2 451C412.7 451 375.3 451 337.8 451C300.3 451 262.7 451 225.2 451C187.7 451 150.3 451 112.8 451C75.3 451 37.7 451 18.8 451L0 451Z" fill="#0C1322"></path></svg>