<svg width="900" height="140" xmlns="http://www.w3.org/2000/svg" version="1.1">

 <g>
  <title>Layer 1</title>
  <g transform="rotate(180 450 63)" id="svg_5">
   <path id="svg_1" fill="hsl(213, 100%, 91%)" d="m0,21l18.8,-3.7c18.9,-3.6 56.5,-11 94,-4c37.5,7 74.9,28.4 112.4,31.2c37.5,2.8 75.1,-12.8 112.6,-22.5c37.5,-9.7 74.9,-13.3 112.4,-4.5c37.5,8.8 75.1,30.2 112.6,33c37.5,2.8 74.9,-12.8 112.4,-22.7c37.5,-9.8 75.1,-13.8 112.6,-17.5c37.5,-3.6 74.9,-7 93.5,-8.6l18.7,-1.7l0,126l-18.7,0c-18.6,0 -56,0 -93.5,0c-37.5,0 -75.1,0 -112.6,0c-37.5,0 -74.9,0 -112.4,0c-37.5,0 -75.1,0 -112.6,0c-37.5,0 -74.9,0 -112.4,0c-37.5,0 -75.1,0 -112.6,0c-37.5,0 -74.9,0 -112.4,0c-37.5,0 -75.1,0 -94,0l-18.8,0l0,-105z"/>
   <path id="svg_2" fill="hsl(214, 70%, 78%)" d="m0,23l18.8,4c18.9,4 56.5,12 94,15.3c37.5,3.4 74.9,2 112.4,9.5c37.5,7.5 75.1,23.9 112.6,29c37.5,5.2 74.9,-0.8 112.4,-11.8c37.5,-11 75.1,-27 112.6,-34.8c37.5,-7.9 74.9,-7.5 112.4,-1.7c37.5,5.8 75.1,17.2 112.6,24.2c37.5,7 74.9,9.6 93.5,11l18.7,1.3l0,57l-18.7,0c-18.6,0 -56,0 -93.5,0c-37.5,0 -75.1,0 -112.6,0c-37.5,0 -74.9,0 -112.4,0c-37.5,0 -75.1,0 -112.6,0c-37.5,0 -74.9,0 -112.4,0c-37.5,0 -75.1,0 -112.6,0c-37.5,0 -74.9,0 -112.4,0c-37.5,0 -75.1,0 -94,0l-18.8,0l0,-103z"/>
   <path id="svg_3" fill="hsl(214, 70%, 70%)" d="m0,80l18.8,-4.8c18.9,-4.9 56.5,-14.5 94,-11.4c37.5,3.2 74.9,19.2 112.4,25.5c37.5,6.4 75.1,3 112.6,-0.5c37.5,-3.5 74.9,-7.1 112.4,-6.6c37.5,0.5 75.1,5.1 112.6,1.8c37.5,-3.3 74.9,-14.7 112.4,-20.5c37.5,-5.8 75.1,-6.2 112.6,0.5c37.5,6.7 74.9,20.3 93.5,27.2l18.7,6.8l0,28l-18.7,0c-18.6,0 -56,0 -93.5,0c-37.5,0 -75.1,0 -112.6,0c-37.5,0 -74.9,0 -112.4,0c-37.5,0 -75.1,0 -112.6,0c-37.5,0 -74.9,0 -112.4,0c-37.5,0 -75.1,0 -112.6,0c-37.5,0 -74.9,0 -112.4,0c-37.5,0 -75.1,0 -94,0l-18.8,0l0,-46z"/>
   <path id="svg_4" fill="hsl(214, 55%, 58%)" d="m0,103l18.8,-2.7c18.9,-2.6 56.5,-8 94,-8.8c37.5,-0.8 74.9,2.8 112.4,6.8c37.5,4 75.1,8.4 112.6,8.7c37.5,0.3 74.9,-3.3 112.4,-8.7c37.5,-5.3 75.1,-12.3 112.6,-12c37.5,0.4 74.9,8 112.4,13c37.5,5 75.1,7.4 112.6,5.9c37.5,-1.5 74.9,-6.9 93.5,-9.5l18.7,-2.7l0,33l-18.7,0c-18.6,0 -56,0 -93.5,0c-37.5,0 -75.1,0 -112.6,0c-37.5,0 -74.9,0 -112.4,0c-37.5,0 -75.1,0 -112.6,0c-37.5,0 -74.9,0 -112.4,0c-37.5,0 -75.1,0 -112.6,0c-37.5,0 -74.9,0 -112.4,0c-37.5,0 -75.1,0 -94,0l-18.8,0l0,-23z"/>
  </g>
 </g>
</svg>