<svg id="visual" viewBox="0 0 960 140" width="960" height="140" xmlns="http://www.w3.org/2000/svg" xmlns:xlink="http://www.w3.org/1999/xlink" version="1.1"><path d="M0 2L8 6.5C16 11 32 20 48 20.5C64 21 80 13 96 12.8C112 12.7 128 20.3 144 24.8C160 29.3 176 30.7 192 29.5C208 28.3 224 24.7 240 20.7C256 16.7 272 12.3 288 15.5C304 18.7 320 29.3 336 28.8C352 28.3 368 16.7 384 13.8C400 11 416 17 432 16.8C448 16.7 464 10.3 480 8C496 5.7 512 7.3 528 13.3C544 19.3 560 29.7 576 31.3C592 33 608 26 624 19.7C640 13.3 656 7.7 672 8.2C688 8.7 704 15.3 720 21.2C736 27 752 32 768 34.2C784 36.3 800 35.7 816 36.2C832 36.7 848 38.3 864 34.5C880 30.7 896 21.3 912 15.3C928 9.3 944 6.7 952 5.3L960 4L960 0L952 0C944 0 928 0 912 0C896 0 880 0 864 0C848 0 832 0 816 0C800 0 784 0 768 0C752 0 736 0 720 0C704 0 688 0 672 0C656 0 640 0 624 0C608 0 592 0 576 0C560 0 544 0 528 0C512 0 496 0 480 0C464 0 448 0 432 0C416 0 400 0 384 0C368 0 352 0 336 0C320 0 304 0 288 0C272 0 256 0 240 0C224 0 208 0 192 0C176 0 160 0 144 0C128 0 112 0 96 0C80 0 64 0 48 0C32 0 16 0 8 0L0 0Z" fill="#121212"></path><path d="M0 44L8 42C16 40 32 36 48 37.5C64 39 80 46 96 48.5C112 51 128 49 144 48.7C160 48.3 176 49.7 192 56.5C208 63.3 224 75.7 240 85.3C256 95 272 102 288 97C304 92 320 75 336 63.3C352 51.7 368 45.3 384 47.5C400 49.7 416 60.3 432 63.5C448 66.7 464 62.3 480 64.7C496 67 512 76 528 80.7C544 85.3 560 85.7 576 83.8C592 82 608 78 624 67.5C640 57 656 40 672 39.5C688 39 704 55 720 65.5C736 76 752 81 768 81.5C784 82 800 78 816 71.5C832 65 848 56 864 52.5C880 49 896 51 912 55C928 59 944 65 952 68L960 71L960 2L952 3.3C944 4.7 928 7.3 912 13.3C896 19.3 880 28.7 864 32.5C848 36.3 832 34.7 816 34.2C800 33.7 784 34.3 768 32.2C752 30 736 25 720 19.2C704 13.3 688 6.7 672 6.2C656 5.7 640 11.3 624 17.7C608 24 592 31 576 29.3C560 27.7 544 17.3 528 11.3C512 5.3 496 3.7 480 6C464 8.3 448 14.7 432 14.8C416 15 400 9 384 11.8C368 14.7 352 26.3 336 26.8C320 27.3 304 16.7 288 13.5C272 10.3 256 14.7 240 18.7C224 22.7 208 26.3 192 27.5C176 28.7 160 27.3 144 22.8C128 18.3 112 10.7 96 10.8C80 11 64 19 48 18.5C32 18 16 9 8 4.5L0 0Z" fill="#12141a"></path><path d="M0 116L8 112.5C16 109 32 102 48 98.7C64 95.3 80 95.7 96 102.8C112 110 128 124 144 123.2C160 122.3 176 106.7 192 100.2C208 93.7 224 96.3 240 101.7C256 107 272 115 288 119.7C304 124.3 320 125.7 336 122.2C352 118.7 368 110.3 384 105C400 99.7 416 97.3 432 100.2C448 103 464 111 480 112.7C496 114.3 512 109.7 528 105.7C544 101.7 560 98.3 576 96.3C592 94.3 608 93.7 624 96.5C640 99.3 656 105.7 672 107.2C688 108.7 704 105.3 720 104.2C736 103 752 104 768 108.3C784 112.7 800 120.3 816 119.8C832 119.3 848 110.7 864 107C880 103.3 896 104.7 912 107.5C928 110.3 944 114.7 952 116.8L960 119L960 69L952 66C944 63 928 57 912 53C896 49 880 47 864 50.5C848 54 832 63 816 69.5C800 76 784 80 768 79.5C752 79 736 74 720 63.5C704 53 688 37 672 37.5C656 38 640 55 624 65.5C608 76 592 80 576 81.8C560 83.7 544 83.3 528 78.7C512 74 496 65 480 62.7C464 60.3 448 64.7 432 61.5C416 58.3 400 47.7 384 45.5C368 43.3 352 49.7 336 61.3C320 73 304 90 288 95C272 100 256 93 240 83.3C224 73.7 208 61.3 192 54.5C176 47.7 160 46.3 144 46.7C128 47 112 49 96 46.5C80 44 64 37 48 35.5C32 34 16 38 8 40L0 42Z" fill="#111622"></path><path d="M0 141L8 141C16 141 32 141 48 141C64 141 80 141 96 141C112 141 128 141 144 141C160 141 176 141 192 141C208 141 224 141 240 141C256 141 272 141 288 141C304 141 320 141 336 141C352 141 368 141 384 141C400 141 416 141 432 141C448 141 464 141 480 141C496 141 512 141 528 141C544 141 560 141 576 141C592 141 608 141 624 141C640 141 656 141 672 141C688 141 704 141 720 141C736 141 752 141 768 141C784 141 800 141 816 141C832 141 848 141 864 141C880 141 896 141 912 141C928 141 944 141 952 141L960 141L960 117L952 114.8C944 112.7 928 108.3 912 105.5C896 102.7 880 101.3 864 105C848 108.7 832 117.3 816 117.8C800 118.3 784 110.7 768 106.3C752 102 736 101 720 102.2C704 103.3 688 106.7 672 105.2C656 103.7 640 97.3 624 94.5C608 91.7 592 92.3 576 94.3C560 96.3 544 99.7 528 103.7C512 107.7 496 112.3 480 110.7C464 109 448 101 432 98.2C416 95.3 400 97.7 384 103C368 108.3 352 116.7 336 120.2C320 123.7 304 122.3 288 117.7C272 113 256 105 240 99.7C224 94.3 208 91.7 192 98.2C176 104.7 160 120.3 144 121.2C128 122 112 108 96 100.8C80 93.7 64 93.3 48 96.7C32 100 16 107 8 110.5L0 114Z" fill="#0f1729"></path></svg>